<mxfile host="app.diagrams.net" agent="Mozilla/5.0 (Windows NT 10.0; Win64; x64) AppleWebKit/537.36 (KHTML, like Gecko) Chrome/122.0.6261.95 Safari/537.36" version="24.7.5">
  <diagram name="第 1 页" id="rn4VkBe_CN04JegehD6v">
    <mxGraphModel dx="2484" dy="2247" grid="1" gridSize="10" guides="1" tooltips="1" connect="1" arrows="1" fold="1" page="1" pageScale="1" pageWidth="827" pageHeight="1169" math="0" shadow="0">
      <root>
        <mxCell id="0" />
        <mxCell id="1" parent="0" />
        <mxCell id="78LZ6X8sNbW4thThY6g4-25" value="类图" style="swimlane;horizontal=0;whiteSpace=wrap;html=1;fontSize=32;startSize=40;fillColor=#f8cecc;strokeColor=#b85450;" parent="1" vertex="1">
          <mxGeometry x="150" y="-330" width="1800" height="820" as="geometry" />
        </mxCell>
        <mxCell id="78LZ6X8sNbW4thThY6g4-50" value="&lt;span style=&quot;background-color: initial;&quot;&gt;服务器&lt;/span&gt;" style="swimlane;whiteSpace=wrap;html=1;fontSize=32;startSize=40;fillColor=#ffe6cc;strokeColor=#d79b00;align=center;" parent="78LZ6X8sNbW4thThY6g4-25" vertex="1">
          <mxGeometry x="60" y="440" width="900" height="355" as="geometry" />
        </mxCell>
        <mxCell id="78LZ6X8sNbW4thThY6g4-51" value="&lt;font style=&quot;font-size: 24px;&quot;&gt;用户服务&lt;/font&gt;" style="swimlane;fontStyle=1;align=center;verticalAlign=top;childLayout=stackLayout;horizontal=1;startSize=40;horizontalStack=0;resizeParent=1;resizeParentMax=0;resizeLast=0;collapsible=1;marginBottom=0;whiteSpace=wrap;html=1;fillColor=#e1d5e7;strokeColor=#9673a6;" parent="78LZ6X8sNbW4thThY6g4-50" vertex="1">
          <mxGeometry x="240" y="65" width="160" height="100" as="geometry" />
        </mxCell>
        <mxCell id="78LZ6X8sNbW4thThY6g4-52" value="-" style="text;strokeColor=none;fillColor=none;align=left;verticalAlign=top;spacingLeft=4;spacingRight=4;overflow=hidden;rotatable=0;points=[[0,0.5],[1,0.5]];portConstraint=eastwest;whiteSpace=wrap;html=1;" parent="78LZ6X8sNbW4thThY6g4-51" vertex="1">
          <mxGeometry y="40" width="160" height="26" as="geometry" />
        </mxCell>
        <mxCell id="78LZ6X8sNbW4thThY6g4-53" value="" style="line;strokeWidth=1;fillColor=none;align=left;verticalAlign=middle;spacingTop=-1;spacingLeft=3;spacingRight=3;rotatable=0;labelPosition=right;points=[];portConstraint=eastwest;strokeColor=inherit;" parent="78LZ6X8sNbW4thThY6g4-51" vertex="1">
          <mxGeometry y="66" width="160" height="8" as="geometry" />
        </mxCell>
        <mxCell id="78LZ6X8sNbW4thThY6g4-54" value="+ 处理登录请求" style="text;strokeColor=none;fillColor=none;align=left;verticalAlign=top;spacingLeft=4;spacingRight=4;overflow=hidden;rotatable=0;points=[[0,0.5],[1,0.5]];portConstraint=eastwest;whiteSpace=wrap;html=1;" parent="78LZ6X8sNbW4thThY6g4-51" vertex="1">
          <mxGeometry y="74" width="160" height="26" as="geometry" />
        </mxCell>
        <mxCell id="78LZ6X8sNbW4thThY6g4-55" value="&lt;span style=&quot;font-size: 24px;&quot;&gt;服务器&lt;/span&gt;" style="swimlane;fontStyle=1;align=center;verticalAlign=top;childLayout=stackLayout;horizontal=1;startSize=40;horizontalStack=0;resizeParent=1;resizeParentMax=0;resizeLast=0;collapsible=1;marginBottom=0;whiteSpace=wrap;html=1;fillColor=#bac8d3;strokeColor=#23445d;" parent="78LZ6X8sNbW4thThY6g4-50" vertex="1">
          <mxGeometry x="10" y="225" width="160" height="100" as="geometry" />
        </mxCell>
        <mxCell id="78LZ6X8sNbW4thThY6g4-56" value="-" style="text;strokeColor=none;fillColor=none;align=left;verticalAlign=top;spacingLeft=4;spacingRight=4;overflow=hidden;rotatable=0;points=[[0,0.5],[1,0.5]];portConstraint=eastwest;whiteSpace=wrap;html=1;" parent="78LZ6X8sNbW4thThY6g4-55" vertex="1">
          <mxGeometry y="40" width="160" height="26" as="geometry" />
        </mxCell>
        <mxCell id="78LZ6X8sNbW4thThY6g4-57" value="" style="line;strokeWidth=1;fillColor=none;align=left;verticalAlign=middle;spacingTop=-1;spacingLeft=3;spacingRight=3;rotatable=0;labelPosition=right;points=[];portConstraint=eastwest;strokeColor=inherit;" parent="78LZ6X8sNbW4thThY6g4-55" vertex="1">
          <mxGeometry y="66" width="160" height="8" as="geometry" />
        </mxCell>
        <mxCell id="78LZ6X8sNbW4thThY6g4-58" value="+ 初始化" style="text;strokeColor=none;fillColor=none;align=left;verticalAlign=top;spacingLeft=4;spacingRight=4;overflow=hidden;rotatable=0;points=[[0,0.5],[1,0.5]];portConstraint=eastwest;whiteSpace=wrap;html=1;" parent="78LZ6X8sNbW4thThY6g4-55" vertex="1">
          <mxGeometry y="74" width="160" height="26" as="geometry" />
        </mxCell>
        <mxCell id="78LZ6X8sNbW4thThY6g4-59" value="&lt;span style=&quot;font-size: 24px;&quot;&gt;字符串合法检测&lt;/span&gt;" style="swimlane;fontStyle=1;align=center;verticalAlign=top;childLayout=stackLayout;horizontal=1;startSize=40;horizontalStack=0;resizeParent=1;resizeParentMax=0;resizeLast=0;collapsible=1;marginBottom=0;whiteSpace=wrap;html=1;" parent="78LZ6X8sNbW4thThY6g4-50" vertex="1">
          <mxGeometry x="430" y="225" width="200" height="100" as="geometry" />
        </mxCell>
        <mxCell id="78LZ6X8sNbW4thThY6g4-60" value="- 非法字符" style="text;strokeColor=none;fillColor=none;align=left;verticalAlign=top;spacingLeft=4;spacingRight=4;overflow=hidden;rotatable=0;points=[[0,0.5],[1,0.5]];portConstraint=eastwest;whiteSpace=wrap;html=1;" parent="78LZ6X8sNbW4thThY6g4-59" vertex="1">
          <mxGeometry y="40" width="200" height="26" as="geometry" />
        </mxCell>
        <mxCell id="78LZ6X8sNbW4thThY6g4-61" value="" style="line;strokeWidth=1;fillColor=none;align=left;verticalAlign=middle;spacingTop=-1;spacingLeft=3;spacingRight=3;rotatable=0;labelPosition=right;points=[];portConstraint=eastwest;strokeColor=inherit;" parent="78LZ6X8sNbW4thThY6g4-59" vertex="1">
          <mxGeometry y="66" width="200" height="8" as="geometry" />
        </mxCell>
        <mxCell id="78LZ6X8sNbW4thThY6g4-62" value="+ 检测" style="text;strokeColor=none;fillColor=none;align=left;verticalAlign=top;spacingLeft=4;spacingRight=4;overflow=hidden;rotatable=0;points=[[0,0.5],[1,0.5]];portConstraint=eastwest;whiteSpace=wrap;html=1;" parent="78LZ6X8sNbW4thThY6g4-59" vertex="1">
          <mxGeometry y="74" width="200" height="26" as="geometry" />
        </mxCell>
        <mxCell id="78LZ6X8sNbW4thThY6g4-63" value="&lt;font style=&quot;font-size: 24px;&quot;&gt;数据库服务&lt;/font&gt;" style="swimlane;fontStyle=1;align=center;verticalAlign=top;childLayout=stackLayout;horizontal=1;startSize=40;horizontalStack=0;resizeParent=1;resizeParentMax=0;resizeLast=0;collapsible=1;marginBottom=0;whiteSpace=wrap;html=1;fillColor=#e1d5e7;strokeColor=#9673a6;" parent="78LZ6X8sNbW4thThY6g4-50" vertex="1">
          <mxGeometry x="20" y="75" width="160" height="100" as="geometry" />
        </mxCell>
        <mxCell id="78LZ6X8sNbW4thThY6g4-64" value="+ 库" style="text;strokeColor=none;fillColor=none;align=left;verticalAlign=top;spacingLeft=4;spacingRight=4;overflow=hidden;rotatable=0;points=[[0,0.5],[1,0.5]];portConstraint=eastwest;whiteSpace=wrap;html=1;" parent="78LZ6X8sNbW4thThY6g4-63" vertex="1">
          <mxGeometry y="40" width="160" height="26" as="geometry" />
        </mxCell>
        <mxCell id="78LZ6X8sNbW4thThY6g4-65" value="" style="line;strokeWidth=1;fillColor=none;align=left;verticalAlign=middle;spacingTop=-1;spacingLeft=3;spacingRight=3;rotatable=0;labelPosition=right;points=[];portConstraint=eastwest;strokeColor=inherit;" parent="78LZ6X8sNbW4thThY6g4-63" vertex="1">
          <mxGeometry y="66" width="160" height="8" as="geometry" />
        </mxCell>
        <mxCell id="78LZ6X8sNbW4thThY6g4-66" value="-&amp;nbsp;" style="text;strokeColor=none;fillColor=none;align=left;verticalAlign=top;spacingLeft=4;spacingRight=4;overflow=hidden;rotatable=0;points=[[0,0.5],[1,0.5]];portConstraint=eastwest;whiteSpace=wrap;html=1;" parent="78LZ6X8sNbW4thThY6g4-63" vertex="1">
          <mxGeometry y="74" width="160" height="26" as="geometry" />
        </mxCell>
        <mxCell id="78LZ6X8sNbW4thThY6g4-67" value="1" style="endArrow=open;html=1;endSize=12;startArrow=diamondThin;startSize=14;startFill=1;edgeStyle=orthogonalEdgeStyle;align=left;verticalAlign=bottom;rounded=0;" parent="78LZ6X8sNbW4thThY6g4-50" source="78LZ6X8sNbW4thThY6g4-51" target="78LZ6X8sNbW4thThY6g4-59" edge="1">
          <mxGeometry x="-1" y="3" relative="1" as="geometry">
            <mxPoint x="280" y="195" as="sourcePoint" />
            <mxPoint x="440" y="195" as="targetPoint" />
          </mxGeometry>
        </mxCell>
        <mxCell id="78LZ6X8sNbW4thThY6g4-68" value="Use" style="endArrow=open;endSize=12;dashed=1;html=1;rounded=0;" parent="78LZ6X8sNbW4thThY6g4-50" source="78LZ6X8sNbW4thThY6g4-51" target="78LZ6X8sNbW4thThY6g4-63" edge="1">
          <mxGeometry width="160" relative="1" as="geometry">
            <mxPoint x="160" y="215" as="sourcePoint" />
            <mxPoint x="320" y="215" as="targetPoint" />
          </mxGeometry>
        </mxCell>
        <mxCell id="78LZ6X8sNbW4thThY6g4-69" value="Init" style="endArrow=open;endSize=12;dashed=1;html=1;rounded=0;" parent="78LZ6X8sNbW4thThY6g4-50" source="78LZ6X8sNbW4thThY6g4-55" target="78LZ6X8sNbW4thThY6g4-63" edge="1">
          <mxGeometry width="160" relative="1" as="geometry">
            <mxPoint x="250" y="129" as="sourcePoint" />
            <mxPoint x="190" y="131" as="targetPoint" />
          </mxGeometry>
        </mxCell>
        <mxCell id="78LZ6X8sNbW4thThY6g4-70" value="Init" style="endArrow=open;endSize=12;dashed=1;html=1;rounded=0;" parent="78LZ6X8sNbW4thThY6g4-50" source="78LZ6X8sNbW4thThY6g4-55" target="78LZ6X8sNbW4thThY6g4-51" edge="1">
          <mxGeometry width="160" relative="1" as="geometry">
            <mxPoint x="117" y="265" as="sourcePoint" />
            <mxPoint x="113" y="185" as="targetPoint" />
          </mxGeometry>
        </mxCell>
        <mxCell id="78LZ6X8sNbW4thThY6g4-71" value="&lt;span style=&quot;font-size: 24px;&quot;&gt;网络连接&lt;/span&gt;" style="swimlane;fontStyle=1;align=center;verticalAlign=top;childLayout=stackLayout;horizontal=1;startSize=40;horizontalStack=0;resizeParent=1;resizeParentMax=0;resizeLast=0;collapsible=1;marginBottom=0;whiteSpace=wrap;html=1;" parent="78LZ6X8sNbW4thThY6g4-50" vertex="1">
          <mxGeometry x="680" y="65" width="200" height="100" as="geometry" />
        </mxCell>
        <mxCell id="78LZ6X8sNbW4thThY6g4-72" value="+ 会话" style="text;strokeColor=none;fillColor=none;align=left;verticalAlign=top;spacingLeft=4;spacingRight=4;overflow=hidden;rotatable=0;points=[[0,0.5],[1,0.5]];portConstraint=eastwest;whiteSpace=wrap;html=1;" parent="78LZ6X8sNbW4thThY6g4-71" vertex="1">
          <mxGeometry y="40" width="200" height="26" as="geometry" />
        </mxCell>
        <mxCell id="78LZ6X8sNbW4thThY6g4-73" value="" style="line;strokeWidth=1;fillColor=none;align=left;verticalAlign=middle;spacingTop=-1;spacingLeft=3;spacingRight=3;rotatable=0;labelPosition=right;points=[];portConstraint=eastwest;strokeColor=inherit;" parent="78LZ6X8sNbW4thThY6g4-71" vertex="1">
          <mxGeometry y="66" width="200" height="8" as="geometry" />
        </mxCell>
        <mxCell id="78LZ6X8sNbW4thThY6g4-74" value="+ 发送消息" style="text;strokeColor=none;fillColor=none;align=left;verticalAlign=top;spacingLeft=4;spacingRight=4;overflow=hidden;rotatable=0;points=[[0,0.5],[1,0.5]];portConstraint=eastwest;whiteSpace=wrap;html=1;" parent="78LZ6X8sNbW4thThY6g4-71" vertex="1">
          <mxGeometry y="74" width="200" height="26" as="geometry" />
        </mxCell>
        <mxCell id="78LZ6X8sNbW4thThY6g4-75" value="&lt;span style=&quot;font-size: 24px;&quot;&gt;会话&lt;/span&gt;" style="swimlane;fontStyle=1;align=center;verticalAlign=top;childLayout=stackLayout;horizontal=1;startSize=40;horizontalStack=0;resizeParent=1;resizeParentMax=0;resizeLast=0;collapsible=1;marginBottom=0;whiteSpace=wrap;html=1;" parent="78LZ6X8sNbW4thThY6g4-50" vertex="1">
          <mxGeometry x="680" y="225" width="200" height="100" as="geometry" />
        </mxCell>
        <mxCell id="78LZ6X8sNbW4thThY6g4-76" value="+ User数据" style="text;strokeColor=none;fillColor=none;align=left;verticalAlign=top;spacingLeft=4;spacingRight=4;overflow=hidden;rotatable=0;points=[[0,0.5],[1,0.5]];portConstraint=eastwest;whiteSpace=wrap;html=1;" parent="78LZ6X8sNbW4thThY6g4-75" vertex="1">
          <mxGeometry y="40" width="200" height="26" as="geometry" />
        </mxCell>
        <mxCell id="78LZ6X8sNbW4thThY6g4-77" value="" style="line;strokeWidth=1;fillColor=none;align=left;verticalAlign=middle;spacingTop=-1;spacingLeft=3;spacingRight=3;rotatable=0;labelPosition=right;points=[];portConstraint=eastwest;strokeColor=inherit;" parent="78LZ6X8sNbW4thThY6g4-75" vertex="1">
          <mxGeometry y="66" width="200" height="8" as="geometry" />
        </mxCell>
        <mxCell id="78LZ6X8sNbW4thThY6g4-78" value="-" style="text;strokeColor=none;fillColor=none;align=left;verticalAlign=top;spacingLeft=4;spacingRight=4;overflow=hidden;rotatable=0;points=[[0,0.5],[1,0.5]];portConstraint=eastwest;whiteSpace=wrap;html=1;" parent="78LZ6X8sNbW4thThY6g4-75" vertex="1">
          <mxGeometry y="74" width="200" height="26" as="geometry" />
        </mxCell>
        <mxCell id="78LZ6X8sNbW4thThY6g4-79" value="Use" style="endArrow=open;endSize=12;dashed=1;html=1;rounded=0;" parent="78LZ6X8sNbW4thThY6g4-50" source="78LZ6X8sNbW4thThY6g4-51" target="78LZ6X8sNbW4thThY6g4-71" edge="1">
          <mxGeometry width="160" relative="1" as="geometry">
            <mxPoint x="250" y="129" as="sourcePoint" />
            <mxPoint x="190" y="131" as="targetPoint" />
          </mxGeometry>
        </mxCell>
        <mxCell id="78LZ6X8sNbW4thThY6g4-80" value="1" style="endArrow=open;html=1;endSize=12;startArrow=diamondThin;startSize=14;startFill=1;edgeStyle=orthogonalEdgeStyle;align=left;verticalAlign=bottom;rounded=0;" parent="78LZ6X8sNbW4thThY6g4-50" source="78LZ6X8sNbW4thThY6g4-71" target="78LZ6X8sNbW4thThY6g4-75" edge="1">
          <mxGeometry x="-1" y="3" relative="1" as="geometry">
            <mxPoint x="330" y="175" as="sourcePoint" />
            <mxPoint x="330" y="265" as="targetPoint" />
          </mxGeometry>
        </mxCell>
        <mxCell id="78LZ6X8sNbW4thThY6g4-81" value="&lt;font style=&quot;font-size: 24px;&quot;&gt;消息分发(Net)&lt;/font&gt;" style="swimlane;fontStyle=1;align=center;verticalAlign=top;childLayout=stackLayout;horizontal=1;startSize=40;horizontalStack=0;resizeParent=1;resizeParentMax=0;resizeLast=0;collapsible=1;marginBottom=0;whiteSpace=wrap;html=1;fillColor=#e1d5e7;strokeColor=#9673a6;" parent="78LZ6X8sNbW4thThY6g4-50" vertex="1">
          <mxGeometry x="240" y="225" width="160" height="100" as="geometry" />
        </mxCell>
        <mxCell id="78LZ6X8sNbW4thThY6g4-82" value="-" style="text;strokeColor=none;fillColor=none;align=left;verticalAlign=top;spacingLeft=4;spacingRight=4;overflow=hidden;rotatable=0;points=[[0,0.5],[1,0.5]];portConstraint=eastwest;whiteSpace=wrap;html=1;" parent="78LZ6X8sNbW4thThY6g4-81" vertex="1">
          <mxGeometry y="40" width="160" height="26" as="geometry" />
        </mxCell>
        <mxCell id="78LZ6X8sNbW4thThY6g4-83" value="" style="line;strokeWidth=1;fillColor=none;align=left;verticalAlign=middle;spacingTop=-1;spacingLeft=3;spacingRight=3;rotatable=0;labelPosition=right;points=[];portConstraint=eastwest;strokeColor=inherit;" parent="78LZ6X8sNbW4thThY6g4-81" vertex="1">
          <mxGeometry y="66" width="160" height="8" as="geometry" />
        </mxCell>
        <mxCell id="78LZ6X8sNbW4thThY6g4-84" value="+ 订阅消息响应" style="text;strokeColor=none;fillColor=none;align=left;verticalAlign=top;spacingLeft=4;spacingRight=4;overflow=hidden;rotatable=0;points=[[0,0.5],[1,0.5]];portConstraint=eastwest;whiteSpace=wrap;html=1;" parent="78LZ6X8sNbW4thThY6g4-81" vertex="1">
          <mxGeometry y="74" width="160" height="26" as="geometry" />
        </mxCell>
        <mxCell id="78LZ6X8sNbW4thThY6g4-85" value="Use" style="endArrow=open;endSize=12;dashed=1;html=1;rounded=0;" parent="78LZ6X8sNbW4thThY6g4-50" source="78LZ6X8sNbW4thThY6g4-51" target="78LZ6X8sNbW4thThY6g4-81" edge="1">
          <mxGeometry width="160" relative="1" as="geometry">
            <mxPoint x="250" y="129" as="sourcePoint" />
            <mxPoint x="190" y="131" as="targetPoint" />
          </mxGeometry>
        </mxCell>
        <mxCell id="78LZ6X8sNbW4thThY6g4-26" value="客户端" style="swimlane;whiteSpace=wrap;html=1;fontSize=32;startSize=40;fillColor=#ffe6cc;strokeColor=#d79b00;" parent="78LZ6X8sNbW4thThY6g4-25" vertex="1">
          <mxGeometry x="330" y="60" width="550" height="360" as="geometry" />
        </mxCell>
        <mxCell id="78LZ6X8sNbW4thThY6g4-27" value="&lt;font style=&quot;font-size: 24px;&quot;&gt;登录UI&lt;/font&gt;" style="swimlane;fontStyle=1;align=center;verticalAlign=top;childLayout=stackLayout;horizontal=1;startSize=40;horizontalStack=0;resizeParent=1;resizeParentMax=0;resizeLast=0;collapsible=1;marginBottom=0;whiteSpace=wrap;html=1;" parent="78LZ6X8sNbW4thThY6g4-26" vertex="1">
          <mxGeometry x="20" y="65" width="160" height="126" as="geometry" />
        </mxCell>
        <mxCell id="78LZ6X8sNbW4thThY6g4-28" value="+ UI元素" style="text;strokeColor=none;fillColor=none;align=left;verticalAlign=top;spacingLeft=4;spacingRight=4;overflow=hidden;rotatable=0;points=[[0,0.5],[1,0.5]];portConstraint=eastwest;whiteSpace=wrap;html=1;" parent="78LZ6X8sNbW4thThY6g4-27" vertex="1">
          <mxGeometry y="40" width="160" height="26" as="geometry" />
        </mxCell>
        <mxCell id="78LZ6X8sNbW4thThY6g4-29" value="" style="line;strokeWidth=1;fillColor=none;align=left;verticalAlign=middle;spacingTop=-1;spacingLeft=3;spacingRight=3;rotatable=0;labelPosition=right;points=[];portConstraint=eastwest;strokeColor=inherit;" parent="78LZ6X8sNbW4thThY6g4-27" vertex="1">
          <mxGeometry y="66" width="160" height="8" as="geometry" />
        </mxCell>
        <mxCell id="78LZ6X8sNbW4thThY6g4-30" value="+ 注册按钮响应" style="text;strokeColor=none;fillColor=none;align=left;verticalAlign=top;spacingLeft=4;spacingRight=4;overflow=hidden;rotatable=0;points=[[0,0.5],[1,0.5]];portConstraint=eastwest;whiteSpace=wrap;html=1;" parent="78LZ6X8sNbW4thThY6g4-27" vertex="1">
          <mxGeometry y="74" width="160" height="26" as="geometry" />
        </mxCell>
        <mxCell id="78LZ6X8sNbW4thThY6g4-31" value="- 显示注册结果" style="text;strokeColor=none;fillColor=none;align=left;verticalAlign=top;spacingLeft=4;spacingRight=4;overflow=hidden;rotatable=0;points=[[0,0.5],[1,0.5]];portConstraint=eastwest;whiteSpace=wrap;html=1;" parent="78LZ6X8sNbW4thThY6g4-27" vertex="1">
          <mxGeometry y="100" width="160" height="26" as="geometry" />
        </mxCell>
        <mxCell id="78LZ6X8sNbW4thThY6g4-32" value="&lt;font style=&quot;font-size: 24px;&quot;&gt;用户服务&lt;/font&gt;" style="swimlane;fontStyle=1;align=center;verticalAlign=top;childLayout=stackLayout;horizontal=1;startSize=40;horizontalStack=0;resizeParent=1;resizeParentMax=0;resizeLast=0;collapsible=1;marginBottom=0;whiteSpace=wrap;html=1;fillColor=#e1d5e7;strokeColor=#9673a6;" parent="78LZ6X8sNbW4thThY6g4-26" vertex="1">
          <mxGeometry x="250" y="65" width="160" height="126" as="geometry" />
        </mxCell>
        <mxCell id="78LZ6X8sNbW4thThY6g4-33" value="+ 登录响应事件" style="text;strokeColor=none;fillColor=none;align=left;verticalAlign=top;spacingLeft=4;spacingRight=4;overflow=hidden;rotatable=0;points=[[0,0.5],[1,0.5]];portConstraint=eastwest;whiteSpace=wrap;html=1;" parent="78LZ6X8sNbW4thThY6g4-32" vertex="1">
          <mxGeometry y="40" width="160" height="26" as="geometry" />
        </mxCell>
        <mxCell id="78LZ6X8sNbW4thThY6g4-34" value="" style="line;strokeWidth=1;fillColor=none;align=left;verticalAlign=middle;spacingTop=-1;spacingLeft=3;spacingRight=3;rotatable=0;labelPosition=right;points=[];portConstraint=eastwest;strokeColor=inherit;" parent="78LZ6X8sNbW4thThY6g4-32" vertex="1">
          <mxGeometry y="66" width="160" height="8" as="geometry" />
        </mxCell>
        <mxCell id="78LZ6X8sNbW4thThY6g4-37" value="+ 登录请求" style="text;strokeColor=none;fillColor=none;align=left;verticalAlign=top;spacingLeft=4;spacingRight=4;overflow=hidden;rotatable=0;points=[[0,0.5],[1,0.5]];portConstraint=eastwest;whiteSpace=wrap;html=1;" parent="78LZ6X8sNbW4thThY6g4-32" vertex="1">
          <mxGeometry y="74" width="160" height="26" as="geometry" />
        </mxCell>
        <mxCell id="78LZ6X8sNbW4thThY6g4-38" value="- 登录响应" style="text;strokeColor=none;fillColor=none;align=left;verticalAlign=top;spacingLeft=4;spacingRight=4;overflow=hidden;rotatable=0;points=[[0,0.5],[1,0.5]];portConstraint=eastwest;whiteSpace=wrap;html=1;" parent="78LZ6X8sNbW4thThY6g4-32" vertex="1">
          <mxGeometry y="100" width="160" height="26" as="geometry" />
        </mxCell>
        <mxCell id="78LZ6X8sNbW4thThY6g4-39" value="&lt;font style=&quot;font-size: 24px;&quot;&gt;客户端(Net)&lt;/font&gt;" style="swimlane;fontStyle=1;align=center;verticalAlign=top;childLayout=stackLayout;horizontal=1;startSize=40;horizontalStack=0;resizeParent=1;resizeParentMax=0;resizeLast=0;collapsible=1;marginBottom=0;whiteSpace=wrap;html=1;fillColor=#e1d5e7;strokeColor=#9673a6;" parent="78LZ6X8sNbW4thThY6g4-26" vertex="1">
          <mxGeometry x="20" y="240" width="160" height="100" as="geometry" />
        </mxCell>
        <mxCell id="78LZ6X8sNbW4thThY6g4-40" value="-" style="text;strokeColor=none;fillColor=none;align=left;verticalAlign=top;spacingLeft=4;spacingRight=4;overflow=hidden;rotatable=0;points=[[0,0.5],[1,0.5]];portConstraint=eastwest;whiteSpace=wrap;html=1;" parent="78LZ6X8sNbW4thThY6g4-39" vertex="1">
          <mxGeometry y="40" width="160" height="26" as="geometry" />
        </mxCell>
        <mxCell id="78LZ6X8sNbW4thThY6g4-41" value="" style="line;strokeWidth=1;fillColor=none;align=left;verticalAlign=middle;spacingTop=-1;spacingLeft=3;spacingRight=3;rotatable=0;labelPosition=right;points=[];portConstraint=eastwest;strokeColor=inherit;" parent="78LZ6X8sNbW4thThY6g4-39" vertex="1">
          <mxGeometry y="66" width="160" height="8" as="geometry" />
        </mxCell>
        <mxCell id="78LZ6X8sNbW4thThY6g4-42" value="+ 发送协议" style="text;strokeColor=none;fillColor=none;align=left;verticalAlign=top;spacingLeft=4;spacingRight=4;overflow=hidden;rotatable=0;points=[[0,0.5],[1,0.5]];portConstraint=eastwest;whiteSpace=wrap;html=1;" parent="78LZ6X8sNbW4thThY6g4-39" vertex="1">
          <mxGeometry y="74" width="160" height="26" as="geometry" />
        </mxCell>
        <mxCell id="78LZ6X8sNbW4thThY6g4-43" value="&lt;font style=&quot;font-size: 24px;&quot;&gt;消息分发(Net)&lt;/font&gt;" style="swimlane;fontStyle=1;align=center;verticalAlign=top;childLayout=stackLayout;horizontal=1;startSize=40;horizontalStack=0;resizeParent=1;resizeParentMax=0;resizeLast=0;collapsible=1;marginBottom=0;whiteSpace=wrap;html=1;fillColor=#e1d5e7;strokeColor=#9673a6;" parent="78LZ6X8sNbW4thThY6g4-26" vertex="1">
          <mxGeometry x="195" y="240" width="160" height="100" as="geometry" />
        </mxCell>
        <mxCell id="78LZ6X8sNbW4thThY6g4-44" value="-" style="text;strokeColor=none;fillColor=none;align=left;verticalAlign=top;spacingLeft=4;spacingRight=4;overflow=hidden;rotatable=0;points=[[0,0.5],[1,0.5]];portConstraint=eastwest;whiteSpace=wrap;html=1;" parent="78LZ6X8sNbW4thThY6g4-43" vertex="1">
          <mxGeometry y="40" width="160" height="26" as="geometry" />
        </mxCell>
        <mxCell id="78LZ6X8sNbW4thThY6g4-45" value="" style="line;strokeWidth=1;fillColor=none;align=left;verticalAlign=middle;spacingTop=-1;spacingLeft=3;spacingRight=3;rotatable=0;labelPosition=right;points=[];portConstraint=eastwest;strokeColor=inherit;" parent="78LZ6X8sNbW4thThY6g4-43" vertex="1">
          <mxGeometry y="66" width="160" height="8" as="geometry" />
        </mxCell>
        <mxCell id="78LZ6X8sNbW4thThY6g4-46" value="+ 订阅消息响应" style="text;strokeColor=none;fillColor=none;align=left;verticalAlign=top;spacingLeft=4;spacingRight=4;overflow=hidden;rotatable=0;points=[[0,0.5],[1,0.5]];portConstraint=eastwest;whiteSpace=wrap;html=1;" parent="78LZ6X8sNbW4thThY6g4-43" vertex="1">
          <mxGeometry y="74" width="160" height="26" as="geometry" />
        </mxCell>
        <mxCell id="78LZ6X8sNbW4thThY6g4-47" value="Use" style="endArrow=open;endSize=12;dashed=1;html=1;rounded=0;" parent="78LZ6X8sNbW4thThY6g4-26" source="78LZ6X8sNbW4thThY6g4-27" target="78LZ6X8sNbW4thThY6g4-32" edge="1">
          <mxGeometry width="160" relative="1" as="geometry">
            <mxPoint x="140" y="235" as="sourcePoint" />
            <mxPoint x="300" y="235" as="targetPoint" />
          </mxGeometry>
        </mxCell>
        <mxCell id="78LZ6X8sNbW4thThY6g4-48" value="Use" style="endArrow=open;endSize=12;dashed=1;html=1;rounded=0;" parent="78LZ6X8sNbW4thThY6g4-26" source="78LZ6X8sNbW4thThY6g4-32" target="78LZ6X8sNbW4thThY6g4-39" edge="1">
          <mxGeometry width="160" relative="1" as="geometry">
            <mxPoint x="190" y="147" as="sourcePoint" />
            <mxPoint x="260" y="155" as="targetPoint" />
          </mxGeometry>
        </mxCell>
        <mxCell id="78LZ6X8sNbW4thThY6g4-49" value="Use" style="endArrow=open;endSize=12;dashed=1;html=1;rounded=0;" parent="78LZ6X8sNbW4thThY6g4-26" source="78LZ6X8sNbW4thThY6g4-32" target="78LZ6X8sNbW4thThY6g4-43" edge="1">
          <mxGeometry width="160" relative="1" as="geometry">
            <mxPoint x="260" y="223" as="sourcePoint" />
            <mxPoint x="177" y="285" as="targetPoint" />
          </mxGeometry>
        </mxCell>
        <mxCell id="78LZ6X8sNbW4thThY6g4-133" value="&lt;font style=&quot;font-size: 24px;&quot;&gt;User数据模型&lt;/font&gt;" style="swimlane;fontStyle=1;align=center;verticalAlign=top;childLayout=stackLayout;horizontal=1;startSize=40;horizontalStack=0;resizeParent=1;resizeParentMax=0;resizeLast=0;collapsible=1;marginBottom=0;whiteSpace=wrap;html=1;fillColor=#e1d5e7;strokeColor=#9673a6;" parent="78LZ6X8sNbW4thThY6g4-26" vertex="1">
          <mxGeometry x="370" y="240" width="160" height="100" as="geometry" />
        </mxCell>
        <mxCell id="78LZ6X8sNbW4thThY6g4-134" value="+ User数据" style="text;strokeColor=none;fillColor=none;align=left;verticalAlign=top;spacingLeft=4;spacingRight=4;overflow=hidden;rotatable=0;points=[[0,0.5],[1,0.5]];portConstraint=eastwest;whiteSpace=wrap;html=1;" parent="78LZ6X8sNbW4thThY6g4-133" vertex="1">
          <mxGeometry y="40" width="160" height="26" as="geometry" />
        </mxCell>
        <mxCell id="78LZ6X8sNbW4thThY6g4-135" value="" style="line;strokeWidth=1;fillColor=none;align=left;verticalAlign=middle;spacingTop=-1;spacingLeft=3;spacingRight=3;rotatable=0;labelPosition=right;points=[];portConstraint=eastwest;strokeColor=inherit;" parent="78LZ6X8sNbW4thThY6g4-133" vertex="1">
          <mxGeometry y="66" width="160" height="8" as="geometry" />
        </mxCell>
        <mxCell id="78LZ6X8sNbW4thThY6g4-136" value="+ 赋值数据" style="text;strokeColor=none;fillColor=none;align=left;verticalAlign=top;spacingLeft=4;spacingRight=4;overflow=hidden;rotatable=0;points=[[0,0.5],[1,0.5]];portConstraint=eastwest;whiteSpace=wrap;html=1;" parent="78LZ6X8sNbW4thThY6g4-133" vertex="1">
          <mxGeometry y="74" width="160" height="26" as="geometry" />
        </mxCell>
        <mxCell id="78LZ6X8sNbW4thThY6g4-137" value="Use" style="endArrow=open;endSize=12;dashed=1;html=1;rounded=0;" parent="78LZ6X8sNbW4thThY6g4-26" source="78LZ6X8sNbW4thThY6g4-32" target="78LZ6X8sNbW4thThY6g4-133" edge="1">
          <mxGeometry width="160" relative="1" as="geometry">
            <mxPoint x="323" y="201" as="sourcePoint" />
            <mxPoint x="298" y="295" as="targetPoint" />
          </mxGeometry>
        </mxCell>
        <mxCell id="78LZ6X8sNbW4thThY6g4-138" value="&lt;span style=&quot;background-color: initial;&quot;&gt;数据结构&lt;/span&gt;" style="swimlane;whiteSpace=wrap;html=1;fontSize=32;startSize=40;fillColor=#ffe6cc;strokeColor=#d79b00;align=center;" parent="78LZ6X8sNbW4thThY6g4-25" vertex="1">
          <mxGeometry x="980" y="70" width="810" height="720" as="geometry" />
        </mxCell>
        <mxCell id="78LZ6X8sNbW4thThY6g4-182" value="&lt;span style=&quot;font-size: 24px;&quot;&gt;Character(数据库)&lt;/span&gt;" style="swimlane;fontStyle=1;align=center;verticalAlign=top;childLayout=stackLayout;horizontal=1;startSize=40;horizontalStack=0;resizeParent=1;resizeParentMax=0;resizeLast=0;collapsible=1;marginBottom=0;whiteSpace=wrap;html=1;" parent="78LZ6X8sNbW4thThY6g4-138" vertex="1">
          <mxGeometry x="570" y="595" width="220" height="100" as="geometry" />
        </mxCell>
        <mxCell id="78LZ6X8sNbW4thThY6g4-183" value="+ 角色相关数据" style="text;strokeColor=none;fillColor=none;align=left;verticalAlign=top;spacingLeft=4;spacingRight=4;overflow=hidden;rotatable=0;points=[[0,0.5],[1,0.5]];portConstraint=eastwest;whiteSpace=wrap;html=1;" parent="78LZ6X8sNbW4thThY6g4-182" vertex="1">
          <mxGeometry y="40" width="220" height="26" as="geometry" />
        </mxCell>
        <mxCell id="78LZ6X8sNbW4thThY6g4-184" value="" style="line;strokeWidth=1;fillColor=none;align=left;verticalAlign=middle;spacingTop=-1;spacingLeft=3;spacingRight=3;rotatable=0;labelPosition=right;points=[];portConstraint=eastwest;strokeColor=inherit;" parent="78LZ6X8sNbW4thThY6g4-182" vertex="1">
          <mxGeometry y="66" width="220" height="8" as="geometry" />
        </mxCell>
        <mxCell id="78LZ6X8sNbW4thThY6g4-185" value="-" style="text;strokeColor=none;fillColor=none;align=left;verticalAlign=top;spacingLeft=4;spacingRight=4;overflow=hidden;rotatable=0;points=[[0,0.5],[1,0.5]];portConstraint=eastwest;whiteSpace=wrap;html=1;" parent="78LZ6X8sNbW4thThY6g4-182" vertex="1">
          <mxGeometry y="74" width="220" height="26" as="geometry" />
        </mxCell>
        <mxCell id="78LZ6X8sNbW4thThY6g4-189" value="has" style="endArrow=open;html=1;endSize=12;startArrow=diamondThin;startSize=14;startFill=0;edgeStyle=orthogonalEdgeStyle;rounded=0;" parent="78LZ6X8sNbW4thThY6g4-138" source="78LZ6X8sNbW4thThY6g4-178" target="78LZ6X8sNbW4thThY6g4-182" edge="1">
          <mxGeometry relative="1" as="geometry">
            <mxPoint x="390" y="440" as="sourcePoint" />
            <mxPoint x="550" y="440" as="targetPoint" />
          </mxGeometry>
        </mxCell>
        <mxCell id="78LZ6X8sNbW4thThY6g4-190" value="1" style="edgeLabel;resizable=0;html=1;align=left;verticalAlign=top;" parent="78LZ6X8sNbW4thThY6g4-189" connectable="0" vertex="1">
          <mxGeometry x="-1" relative="1" as="geometry" />
        </mxCell>
        <mxCell id="78LZ6X8sNbW4thThY6g4-191" value="0...n" style="edgeLabel;resizable=0;html=1;align=right;verticalAlign=top;" parent="78LZ6X8sNbW4thThY6g4-189" connectable="0" vertex="1">
          <mxGeometry x="1" relative="1" as="geometry" />
        </mxCell>
        <mxCell id="78LZ6X8sNbW4thThY6g4-198" value="&lt;span style=&quot;font-size: 24px;&quot;&gt;User(Net&lt;/span&gt;&lt;span style=&quot;font-size: 24px; background-color: initial;&quot;&gt;)&lt;/span&gt;" style="swimlane;fontStyle=1;align=center;verticalAlign=top;childLayout=stackLayout;horizontal=1;startSize=40;horizontalStack=0;resizeParent=1;resizeParentMax=0;resizeLast=0;collapsible=1;marginBottom=0;whiteSpace=wrap;html=1;" parent="78LZ6X8sNbW4thThY6g4-138" vertex="1">
          <mxGeometry x="20" y="230" width="200" height="100" as="geometry" />
        </mxCell>
        <mxCell id="78LZ6X8sNbW4thThY6g4-199" value="+ ID，Player&amp;nbsp;" style="text;strokeColor=none;fillColor=none;align=left;verticalAlign=top;spacingLeft=4;spacingRight=4;overflow=hidden;rotatable=0;points=[[0,0.5],[1,0.5]];portConstraint=eastwest;whiteSpace=wrap;html=1;" parent="78LZ6X8sNbW4thThY6g4-198" vertex="1">
          <mxGeometry y="40" width="200" height="26" as="geometry" />
        </mxCell>
        <mxCell id="78LZ6X8sNbW4thThY6g4-200" value="" style="line;strokeWidth=1;fillColor=none;align=left;verticalAlign=middle;spacingTop=-1;spacingLeft=3;spacingRight=3;rotatable=0;labelPosition=right;points=[];portConstraint=eastwest;strokeColor=inherit;" parent="78LZ6X8sNbW4thThY6g4-198" vertex="1">
          <mxGeometry y="66" width="200" height="8" as="geometry" />
        </mxCell>
        <mxCell id="78LZ6X8sNbW4thThY6g4-201" value="-" style="text;strokeColor=none;fillColor=none;align=left;verticalAlign=top;spacingLeft=4;spacingRight=4;overflow=hidden;rotatable=0;points=[[0,0.5],[1,0.5]];portConstraint=eastwest;whiteSpace=wrap;html=1;" parent="78LZ6X8sNbW4thThY6g4-198" vertex="1">
          <mxGeometry y="74" width="200" height="26" as="geometry" />
        </mxCell>
        <mxCell id="78LZ6X8sNbW4thThY6g4-202" value="has" style="endArrow=block;endFill=1;html=1;edgeStyle=orthogonalEdgeStyle;align=left;verticalAlign=top;rounded=0;" parent="78LZ6X8sNbW4thThY6g4-138" source="78LZ6X8sNbW4thThY6g4-198" target="78LZ6X8sNbW4thThY6g4-204" edge="1">
          <mxGeometry x="-1" relative="1" as="geometry">
            <mxPoint x="220" y="180" as="sourcePoint" />
            <mxPoint x="380" y="180" as="targetPoint" />
          </mxGeometry>
        </mxCell>
        <mxCell id="78LZ6X8sNbW4thThY6g4-203" value="1" style="edgeLabel;resizable=0;html=1;align=left;verticalAlign=bottom;" parent="78LZ6X8sNbW4thThY6g4-202" connectable="0" vertex="1">
          <mxGeometry x="-1" relative="1" as="geometry" />
        </mxCell>
        <mxCell id="78LZ6X8sNbW4thThY6g4-204" value="&lt;span style=&quot;font-size: 24px;&quot;&gt;Player(Net)&lt;/span&gt;" style="swimlane;fontStyle=1;align=center;verticalAlign=top;childLayout=stackLayout;horizontal=1;startSize=40;horizontalStack=0;resizeParent=1;resizeParentMax=0;resizeLast=0;collapsible=1;marginBottom=0;whiteSpace=wrap;html=1;" parent="78LZ6X8sNbW4thThY6g4-138" vertex="1">
          <mxGeometry x="280" y="230" width="200" height="100" as="geometry" />
        </mxCell>
        <mxCell id="78LZ6X8sNbW4thThY6g4-205" value="+ ID，Characters" style="text;strokeColor=none;fillColor=none;align=left;verticalAlign=top;spacingLeft=4;spacingRight=4;overflow=hidden;rotatable=0;points=[[0,0.5],[1,0.5]];portConstraint=eastwest;whiteSpace=wrap;html=1;" parent="78LZ6X8sNbW4thThY6g4-204" vertex="1">
          <mxGeometry y="40" width="200" height="26" as="geometry" />
        </mxCell>
        <mxCell id="78LZ6X8sNbW4thThY6g4-206" value="" style="line;strokeWidth=1;fillColor=none;align=left;verticalAlign=middle;spacingTop=-1;spacingLeft=3;spacingRight=3;rotatable=0;labelPosition=right;points=[];portConstraint=eastwest;strokeColor=inherit;" parent="78LZ6X8sNbW4thThY6g4-204" vertex="1">
          <mxGeometry y="66" width="200" height="8" as="geometry" />
        </mxCell>
        <mxCell id="78LZ6X8sNbW4thThY6g4-207" value="-" style="text;strokeColor=none;fillColor=none;align=left;verticalAlign=top;spacingLeft=4;spacingRight=4;overflow=hidden;rotatable=0;points=[[0,0.5],[1,0.5]];portConstraint=eastwest;whiteSpace=wrap;html=1;" parent="78LZ6X8sNbW4thThY6g4-204" vertex="1">
          <mxGeometry y="74" width="200" height="26" as="geometry" />
        </mxCell>
        <mxCell id="78LZ6X8sNbW4thThY6g4-208" value="has" style="endArrow=open;html=1;endSize=12;startArrow=diamondThin;startSize=14;startFill=0;edgeStyle=orthogonalEdgeStyle;rounded=0;" parent="78LZ6X8sNbW4thThY6g4-138" source="78LZ6X8sNbW4thThY6g4-204" target="78LZ6X8sNbW4thThY6g4-211" edge="1">
          <mxGeometry relative="1" as="geometry">
            <mxPoint x="390" y="180" as="sourcePoint" />
            <mxPoint x="550" y="180" as="targetPoint" />
          </mxGeometry>
        </mxCell>
        <mxCell id="78LZ6X8sNbW4thThY6g4-209" value="1" style="edgeLabel;resizable=0;html=1;align=left;verticalAlign=top;" parent="78LZ6X8sNbW4thThY6g4-208" connectable="0" vertex="1">
          <mxGeometry x="-1" relative="1" as="geometry" />
        </mxCell>
        <mxCell id="78LZ6X8sNbW4thThY6g4-210" value="0...n" style="edgeLabel;resizable=0;html=1;align=right;verticalAlign=top;" parent="78LZ6X8sNbW4thThY6g4-208" connectable="0" vertex="1">
          <mxGeometry x="1" relative="1" as="geometry" />
        </mxCell>
        <mxCell id="78LZ6X8sNbW4thThY6g4-211" value="&lt;span style=&quot;font-size: 24px;&quot;&gt;Character(Net)&lt;/span&gt;" style="swimlane;fontStyle=1;align=center;verticalAlign=top;childLayout=stackLayout;horizontal=1;startSize=40;horizontalStack=0;resizeParent=1;resizeParentMax=0;resizeLast=0;collapsible=1;marginBottom=0;whiteSpace=wrap;html=1;" parent="78LZ6X8sNbW4thThY6g4-138" vertex="1">
          <mxGeometry x="560" y="230" width="220" height="100" as="geometry" />
        </mxCell>
        <mxCell id="78LZ6X8sNbW4thThY6g4-212" value="+ 角色相关数据" style="text;strokeColor=none;fillColor=none;align=left;verticalAlign=top;spacingLeft=4;spacingRight=4;overflow=hidden;rotatable=0;points=[[0,0.5],[1,0.5]];portConstraint=eastwest;whiteSpace=wrap;html=1;" parent="78LZ6X8sNbW4thThY6g4-211" vertex="1">
          <mxGeometry y="40" width="220" height="26" as="geometry" />
        </mxCell>
        <mxCell id="78LZ6X8sNbW4thThY6g4-213" value="" style="line;strokeWidth=1;fillColor=none;align=left;verticalAlign=middle;spacingTop=-1;spacingLeft=3;spacingRight=3;rotatable=0;labelPosition=right;points=[];portConstraint=eastwest;strokeColor=inherit;" parent="78LZ6X8sNbW4thThY6g4-211" vertex="1">
          <mxGeometry y="66" width="220" height="8" as="geometry" />
        </mxCell>
        <mxCell id="78LZ6X8sNbW4thThY6g4-214" value="-" style="text;strokeColor=none;fillColor=none;align=left;verticalAlign=top;spacingLeft=4;spacingRight=4;overflow=hidden;rotatable=0;points=[[0,0.5],[1,0.5]];portConstraint=eastwest;whiteSpace=wrap;html=1;" parent="78LZ6X8sNbW4thThY6g4-211" vertex="1">
          <mxGeometry y="74" width="220" height="26" as="geometry" />
        </mxCell>
        <mxCell id="78LZ6X8sNbW4thThY6g4-187" value="has" style="endArrow=block;endFill=1;html=1;edgeStyle=orthogonalEdgeStyle;align=left;verticalAlign=top;rounded=0;" parent="78LZ6X8sNbW4thThY6g4-138" source="78LZ6X8sNbW4thThY6g4-174" target="78LZ6X8sNbW4thThY6g4-178" edge="1">
          <mxGeometry x="-1" relative="1" as="geometry">
            <mxPoint x="240" y="540" as="sourcePoint" />
            <mxPoint x="400" y="540" as="targetPoint" />
          </mxGeometry>
        </mxCell>
        <mxCell id="78LZ6X8sNbW4thThY6g4-188" value="1" style="edgeLabel;resizable=0;html=1;align=left;verticalAlign=bottom;" parent="78LZ6X8sNbW4thThY6g4-187" connectable="0" vertex="1">
          <mxGeometry x="-1" relative="1" as="geometry" />
        </mxCell>
        <mxCell id="78LZ6X8sNbW4thThY6g4-178" value="&lt;span style=&quot;font-size: 24px;&quot;&gt;Player(数据库)&lt;/span&gt;" style="swimlane;fontStyle=1;align=center;verticalAlign=top;childLayout=stackLayout;horizontal=1;startSize=40;horizontalStack=0;resizeParent=1;resizeParentMax=0;resizeLast=0;collapsible=1;marginBottom=0;whiteSpace=wrap;html=1;" parent="78LZ6X8sNbW4thThY6g4-138" vertex="1">
          <mxGeometry x="305" y="595" width="200" height="100" as="geometry" />
        </mxCell>
        <mxCell id="78LZ6X8sNbW4thThY6g4-179" value="+ ID，Characters" style="text;strokeColor=none;fillColor=none;align=left;verticalAlign=top;spacingLeft=4;spacingRight=4;overflow=hidden;rotatable=0;points=[[0,0.5],[1,0.5]];portConstraint=eastwest;whiteSpace=wrap;html=1;" parent="78LZ6X8sNbW4thThY6g4-178" vertex="1">
          <mxGeometry y="40" width="200" height="26" as="geometry" />
        </mxCell>
        <mxCell id="78LZ6X8sNbW4thThY6g4-180" value="" style="line;strokeWidth=1;fillColor=none;align=left;verticalAlign=middle;spacingTop=-1;spacingLeft=3;spacingRight=3;rotatable=0;labelPosition=right;points=[];portConstraint=eastwest;strokeColor=inherit;" parent="78LZ6X8sNbW4thThY6g4-178" vertex="1">
          <mxGeometry y="66" width="200" height="8" as="geometry" />
        </mxCell>
        <mxCell id="78LZ6X8sNbW4thThY6g4-181" value="-" style="text;strokeColor=none;fillColor=none;align=left;verticalAlign=top;spacingLeft=4;spacingRight=4;overflow=hidden;rotatable=0;points=[[0,0.5],[1,0.5]];portConstraint=eastwest;whiteSpace=wrap;html=1;" parent="78LZ6X8sNbW4thThY6g4-178" vertex="1">
          <mxGeometry y="74" width="200" height="26" as="geometry" />
        </mxCell>
        <mxCell id="78LZ6X8sNbW4thThY6g4-174" value="&lt;span style=&quot;font-size: 24px;&quot;&gt;User(数据库)&lt;/span&gt;" style="swimlane;fontStyle=1;align=center;verticalAlign=top;childLayout=stackLayout;horizontal=1;startSize=40;horizontalStack=0;resizeParent=1;resizeParentMax=0;resizeLast=0;collapsible=1;marginBottom=0;whiteSpace=wrap;html=1;" parent="78LZ6X8sNbW4thThY6g4-138" vertex="1">
          <mxGeometry x="40" y="595" width="200" height="100" as="geometry" />
        </mxCell>
        <mxCell id="78LZ6X8sNbW4thThY6g4-175" value="+ ID，用户名，密码，Player&amp;nbsp;" style="text;strokeColor=none;fillColor=none;align=left;verticalAlign=top;spacingLeft=4;spacingRight=4;overflow=hidden;rotatable=0;points=[[0,0.5],[1,0.5]];portConstraint=eastwest;whiteSpace=wrap;html=1;" parent="78LZ6X8sNbW4thThY6g4-174" vertex="1">
          <mxGeometry y="40" width="200" height="26" as="geometry" />
        </mxCell>
        <mxCell id="78LZ6X8sNbW4thThY6g4-176" value="" style="line;strokeWidth=1;fillColor=none;align=left;verticalAlign=middle;spacingTop=-1;spacingLeft=3;spacingRight=3;rotatable=0;labelPosition=right;points=[];portConstraint=eastwest;strokeColor=inherit;" parent="78LZ6X8sNbW4thThY6g4-174" vertex="1">
          <mxGeometry y="66" width="200" height="8" as="geometry" />
        </mxCell>
        <mxCell id="78LZ6X8sNbW4thThY6g4-177" value="-" style="text;strokeColor=none;fillColor=none;align=left;verticalAlign=top;spacingLeft=4;spacingRight=4;overflow=hidden;rotatable=0;points=[[0,0.5],[1,0.5]];portConstraint=eastwest;whiteSpace=wrap;html=1;" parent="78LZ6X8sNbW4thThY6g4-174" vertex="1">
          <mxGeometry y="74" width="200" height="26" as="geometry" />
        </mxCell>
        <mxCell id="78LZ6X8sNbW4thThY6g4-192" value="has" style="endArrow=block;endFill=1;html=1;edgeStyle=orthogonalEdgeStyle;align=left;verticalAlign=top;rounded=0;" parent="78LZ6X8sNbW4thThY6g4-25" source="78LZ6X8sNbW4thThY6g4-75" target="78LZ6X8sNbW4thThY6g4-174" edge="1">
          <mxGeometry x="-1" relative="1" as="geometry">
            <mxPoint x="1210" y="620" as="sourcePoint" />
            <mxPoint x="1270" y="620" as="targetPoint" />
          </mxGeometry>
        </mxCell>
        <mxCell id="78LZ6X8sNbW4thThY6g4-193" value="1" style="edgeLabel;resizable=0;html=1;align=left;verticalAlign=bottom;" parent="78LZ6X8sNbW4thThY6g4-192" connectable="0" vertex="1">
          <mxGeometry x="-1" relative="1" as="geometry" />
        </mxCell>
        <mxCell id="78LZ6X8sNbW4thThY6g4-215" value="has" style="endArrow=block;endFill=1;html=1;edgeStyle=orthogonalEdgeStyle;align=left;verticalAlign=top;rounded=0;" parent="78LZ6X8sNbW4thThY6g4-25" source="78LZ6X8sNbW4thThY6g4-133" target="78LZ6X8sNbW4thThY6g4-198" edge="1">
          <mxGeometry x="-1" relative="1" as="geometry">
            <mxPoint x="950" y="725" as="sourcePoint" />
            <mxPoint x="1110" y="670" as="targetPoint" />
          </mxGeometry>
        </mxCell>
        <mxCell id="78LZ6X8sNbW4thThY6g4-216" value="1" style="edgeLabel;resizable=0;html=1;align=left;verticalAlign=bottom;" parent="78LZ6X8sNbW4thThY6g4-215" connectable="0" vertex="1">
          <mxGeometry x="-1" relative="1" as="geometry" />
        </mxCell>
        <mxCell id="78LZ6X8sNbW4thThY6g4-86" value="顺序图" style="swimlane;horizontal=0;whiteSpace=wrap;html=1;fontSize=32;startSize=40;fillColor=#f8cecc;strokeColor=#b85450;" parent="1" vertex="1">
          <mxGeometry x="150" y="520" width="1510" height="531" as="geometry" />
        </mxCell>
        <mxCell id="78LZ6X8sNbW4thThY6g4-87" value="客户端" style="swimlane;whiteSpace=wrap;html=1;fontSize=32;startSize=40;fillColor=#ffe6cc;strokeColor=#d79b00;" parent="78LZ6X8sNbW4thThY6g4-86" vertex="1">
          <mxGeometry x="80" y="25.5" width="630" height="479" as="geometry" />
        </mxCell>
        <mxCell id="78LZ6X8sNbW4thThY6g4-88" value="登录UI" style="shape=umlLifeline;perimeter=lifelinePerimeter;whiteSpace=wrap;html=1;container=1;dropTarget=0;collapsible=0;recursiveResize=0;outlineConnect=0;portConstraint=eastwest;newEdgeStyle={&quot;curved&quot;:0,&quot;rounded&quot;:0};strokeColor=default;align=center;verticalAlign=middle;fontFamily=Helvetica;fontSize=24;fontColor=default;fillColor=default;" parent="78LZ6X8sNbW4thThY6g4-87" vertex="1">
          <mxGeometry x="140" y="60" width="100" height="380" as="geometry" />
        </mxCell>
        <mxCell id="78LZ6X8sNbW4thThY6g4-89" value="" style="html=1;points=[[0,0,0,0,5],[0,1,0,0,-5],[1,0,0,0,5],[1,1,0,0,-5]];perimeter=orthogonalPerimeter;outlineConnect=0;targetShapes=umlLifeline;portConstraint=eastwest;newEdgeStyle={&quot;curved&quot;:0,&quot;rounded&quot;:0};strokeColor=default;align=center;verticalAlign=middle;fontFamily=Helvetica;fontSize=12;fontColor=default;fillColor=default;" parent="78LZ6X8sNbW4thThY6g4-88" vertex="1">
          <mxGeometry x="45" y="50" width="10" height="280" as="geometry" />
        </mxCell>
        <mxCell id="78LZ6X8sNbW4thThY6g4-90" value="用户服务" style="shape=umlLifeline;perimeter=lifelinePerimeter;whiteSpace=wrap;html=1;container=1;dropTarget=0;collapsible=0;recursiveResize=0;outlineConnect=0;portConstraint=eastwest;newEdgeStyle={&quot;curved&quot;:0,&quot;rounded&quot;:0};strokeColor=default;align=center;verticalAlign=middle;fontFamily=Helvetica;fontSize=24;fontColor=default;fillColor=default;" parent="78LZ6X8sNbW4thThY6g4-87" vertex="1">
          <mxGeometry x="260" y="60" width="100" height="390" as="geometry" />
        </mxCell>
        <mxCell id="78LZ6X8sNbW4thThY6g4-91" value="" style="html=1;points=[[0,0,0,0,5],[0,1,0,0,-5],[1,0,0,0,5],[1,1,0,0,-5]];perimeter=orthogonalPerimeter;outlineConnect=0;targetShapes=umlLifeline;portConstraint=eastwest;newEdgeStyle={&quot;curved&quot;:0,&quot;rounded&quot;:0};strokeColor=default;align=center;verticalAlign=middle;fontFamily=Helvetica;fontSize=12;fontColor=default;fillColor=default;" parent="78LZ6X8sNbW4thThY6g4-90" vertex="1">
          <mxGeometry x="45" y="70" width="10" height="290" as="geometry" />
        </mxCell>
        <mxCell id="78LZ6X8sNbW4thThY6g4-92" value="初验证后登录信息" style="html=1;verticalAlign=bottom;startArrow=oval;endArrow=block;startSize=8;curved=0;rounded=0;entryX=0;entryY=0;entryDx=0;entryDy=5;fontFamily=Helvetica;fontSize=12;fontColor=default;" parent="78LZ6X8sNbW4thThY6g4-87" edge="1">
          <mxGeometry relative="1" as="geometry">
            <mxPoint x="189.81034482758605" y="134.00000000000023" as="sourcePoint" />
            <mxPoint x="305" y="134.00000000000023" as="targetPoint" />
          </mxGeometry>
        </mxCell>
        <mxCell id="78LZ6X8sNbW4thThY6g4-93" value="客户端" style="shape=umlLifeline;perimeter=lifelinePerimeter;whiteSpace=wrap;html=1;container=1;dropTarget=0;collapsible=0;recursiveResize=0;outlineConnect=0;portConstraint=eastwest;newEdgeStyle={&quot;curved&quot;:0,&quot;rounded&quot;:0};strokeColor=default;align=center;verticalAlign=middle;fontFamily=Helvetica;fontSize=24;fontColor=default;fillColor=default;" parent="78LZ6X8sNbW4thThY6g4-87" vertex="1">
          <mxGeometry x="510" y="60" width="100" height="380" as="geometry" />
        </mxCell>
        <mxCell id="78LZ6X8sNbW4thThY6g4-94" value="" style="html=1;points=[[0,0,0,0,5],[0,1,0,0,-5],[1,0,0,0,5],[1,1,0,0,-5]];perimeter=orthogonalPerimeter;outlineConnect=0;targetShapes=umlLifeline;portConstraint=eastwest;newEdgeStyle={&quot;curved&quot;:0,&quot;rounded&quot;:0};strokeColor=default;align=center;verticalAlign=middle;fontFamily=Helvetica;fontSize=12;fontColor=default;fillColor=default;" parent="78LZ6X8sNbW4thThY6g4-93" vertex="1">
          <mxGeometry x="45" y="50" width="10" height="300" as="geometry" />
        </mxCell>
        <mxCell id="78LZ6X8sNbW4thThY6g4-95" value="消息分发" style="shape=umlLifeline;perimeter=lifelinePerimeter;whiteSpace=wrap;html=1;container=1;dropTarget=0;collapsible=0;recursiveResize=0;outlineConnect=0;portConstraint=eastwest;newEdgeStyle={&quot;curved&quot;:0,&quot;rounded&quot;:0};strokeColor=default;align=center;verticalAlign=middle;fontFamily=Helvetica;fontSize=24;fontColor=default;fillColor=default;" parent="78LZ6X8sNbW4thThY6g4-87" vertex="1">
          <mxGeometry x="380" y="60" width="100" height="380" as="geometry" />
        </mxCell>
        <mxCell id="78LZ6X8sNbW4thThY6g4-96" value="" style="html=1;points=[[0,0,0,0,5],[0,1,0,0,-5],[1,0,0,0,5],[1,1,0,0,-5]];perimeter=orthogonalPerimeter;outlineConnect=0;targetShapes=umlLifeline;portConstraint=eastwest;newEdgeStyle={&quot;curved&quot;:0,&quot;rounded&quot;:0};strokeColor=default;align=center;verticalAlign=middle;fontFamily=Helvetica;fontSize=12;fontColor=default;fillColor=default;" parent="78LZ6X8sNbW4thThY6g4-95" vertex="1">
          <mxGeometry x="45" y="291" width="10" height="20" as="geometry" />
        </mxCell>
        <mxCell id="78LZ6X8sNbW4thThY6g4-97" value="登录消息" style="html=1;verticalAlign=bottom;startArrow=oval;endArrow=block;startSize=8;curved=0;rounded=0;fontFamily=Helvetica;fontSize=12;fontColor=default;" parent="78LZ6X8sNbW4thThY6g4-87" edge="1">
          <mxGeometry relative="1" as="geometry">
            <mxPoint x="309.7857142857142" y="147" as="sourcePoint" />
            <mxPoint x="555" y="147" as="targetPoint" />
          </mxGeometry>
        </mxCell>
        <mxCell id="78LZ6X8sNbW4thThY6g4-99" value="响应消息" style="html=1;verticalAlign=bottom;startArrow=oval;endArrow=block;startSize=8;curved=0;rounded=0;fontFamily=Helvetica;fontSize=12;fontColor=default;" parent="78LZ6X8sNbW4thThY6g4-87" edge="1">
          <mxGeometry relative="1" as="geometry">
            <mxPoint x="559.5" y="351" as="sourcePoint" />
            <mxPoint x="435" y="351" as="targetPoint" />
          </mxGeometry>
        </mxCell>
        <mxCell id="78LZ6X8sNbW4thThY6g4-100" value="订阅" style="html=1;verticalAlign=bottom;startArrow=oval;endArrow=block;startSize=8;curved=0;rounded=0;fontFamily=Helvetica;fontSize=12;fontColor=default;" parent="78LZ6X8sNbW4thThY6g4-87" edge="1">
          <mxGeometry relative="1" as="geometry">
            <mxPoint x="309.81034482758605" y="118" as="sourcePoint" />
            <mxPoint x="425" y="118" as="targetPoint" />
          </mxGeometry>
        </mxCell>
        <mxCell id="78LZ6X8sNbW4thThY6g4-101" value="分发" style="html=1;verticalAlign=bottom;endArrow=open;dashed=1;endSize=8;curved=0;rounded=0;fontFamily=Helvetica;fontSize=12;fontColor=default;" parent="78LZ6X8sNbW4thThY6g4-87" edge="1">
          <mxGeometry relative="1" as="geometry">
            <mxPoint x="429.50000000000045" y="370" as="sourcePoint" />
            <mxPoint x="315" y="370" as="targetPoint" />
          </mxGeometry>
        </mxCell>
        <mxCell id="78LZ6X8sNbW4thThY6g4-102" value="" style="edgeLabel;html=1;align=center;verticalAlign=middle;resizable=0;points=[];strokeColor=default;fontFamily=Helvetica;fontSize=12;fontColor=default;fillColor=default;" parent="78LZ6X8sNbW4thThY6g4-101" vertex="1" connectable="0">
          <mxGeometry x="-0.2984" relative="1" as="geometry">
            <mxPoint x="-19" y="13" as="offset" />
          </mxGeometry>
        </mxCell>
        <mxCell id="78LZ6X8sNbW4thThY6g4-103" value="显示结果" style="html=1;verticalAlign=bottom;endArrow=open;dashed=1;endSize=8;curved=0;rounded=0;fontFamily=Helvetica;fontSize=12;fontColor=default;" parent="78LZ6X8sNbW4thThY6g4-87" edge="1">
          <mxGeometry relative="1" as="geometry">
            <mxPoint x="309.5" y="377" as="sourcePoint" />
            <mxPoint x="195" y="377" as="targetPoint" />
          </mxGeometry>
        </mxCell>
        <mxCell id="78LZ6X8sNbW4thThY6g4-227" value="User数据模型" style="shape=umlLifeline;perimeter=lifelinePerimeter;whiteSpace=wrap;html=1;container=1;dropTarget=0;collapsible=0;recursiveResize=0;outlineConnect=0;portConstraint=eastwest;newEdgeStyle={&quot;curved&quot;:0,&quot;rounded&quot;:0};strokeColor=default;align=center;verticalAlign=middle;fontFamily=Helvetica;fontSize=24;fontColor=default;fillColor=default;size=65;" parent="78LZ6X8sNbW4thThY6g4-87" vertex="1">
          <mxGeometry x="20" y="60" width="100" height="380" as="geometry" />
        </mxCell>
        <mxCell id="78LZ6X8sNbW4thThY6g4-229" value="记录数据" style="html=1;verticalAlign=bottom;startArrow=oval;endArrow=block;startSize=8;curved=0;rounded=0;fontFamily=Helvetica;fontSize=12;fontColor=default;" parent="78LZ6X8sNbW4thThY6g4-87" edge="1">
          <mxGeometry relative="1" as="geometry">
            <mxPoint x="309.5" y="417" as="sourcePoint" />
            <mxPoint x="69.59090909090901" y="417" as="targetPoint" />
          </mxGeometry>
        </mxCell>
        <mxCell id="78LZ6X8sNbW4thThY6g4-104" value="服务端" style="swimlane;whiteSpace=wrap;html=1;fontSize=32;startSize=40;fillColor=#ffe6cc;strokeColor=#d79b00;" parent="78LZ6X8sNbW4thThY6g4-86" vertex="1">
          <mxGeometry x="740" y="25.5" width="740" height="480" as="geometry" />
        </mxCell>
        <mxCell id="78LZ6X8sNbW4thThY6g4-109" value="网络连接" style="shape=umlLifeline;perimeter=lifelinePerimeter;whiteSpace=wrap;html=1;container=1;dropTarget=0;collapsible=0;recursiveResize=0;outlineConnect=0;portConstraint=eastwest;newEdgeStyle={&quot;curved&quot;:0,&quot;rounded&quot;:0};strokeColor=default;align=center;verticalAlign=middle;fontFamily=Helvetica;fontSize=24;fontColor=default;fillColor=default;" parent="78LZ6X8sNbW4thThY6g4-104" vertex="1">
          <mxGeometry x="130" y="56" width="100" height="390" as="geometry" />
        </mxCell>
        <mxCell id="78LZ6X8sNbW4thThY6g4-110" value="" style="html=1;points=[[0,0,0,0,5],[0,1,0,0,-5],[1,0,0,0,5],[1,1,0,0,-5]];perimeter=orthogonalPerimeter;outlineConnect=0;targetShapes=umlLifeline;portConstraint=eastwest;newEdgeStyle={&quot;curved&quot;:0,&quot;rounded&quot;:0};strokeColor=default;align=center;verticalAlign=middle;fontFamily=Helvetica;fontSize=12;fontColor=default;fillColor=default;" parent="78LZ6X8sNbW4thThY6g4-109" vertex="1">
          <mxGeometry x="45" y="81" width="10" height="209" as="geometry" />
        </mxCell>
        <mxCell id="78LZ6X8sNbW4thThY6g4-113" value="请求消息" style="html=1;verticalAlign=bottom;startArrow=oval;endArrow=block;startSize=8;curved=0;rounded=0;fontFamily=Helvetica;fontSize=12;fontColor=default;" parent="78LZ6X8sNbW4thThY6g4-104" source="78LZ6X8sNbW4thThY6g4-109" edge="1">
          <mxGeometry relative="1" as="geometry">
            <mxPoint x="69.66666666666674" y="173" as="sourcePoint" />
            <mxPoint x="285" y="173" as="targetPoint" />
          </mxGeometry>
        </mxCell>
        <mxCell id="78LZ6X8sNbW4thThY6g4-114" value="消息分发" style="shape=umlLifeline;perimeter=lifelinePerimeter;whiteSpace=wrap;html=1;container=1;dropTarget=0;collapsible=0;recursiveResize=0;outlineConnect=0;portConstraint=eastwest;newEdgeStyle={&quot;curved&quot;:0,&quot;rounded&quot;:0};strokeColor=default;align=center;verticalAlign=middle;fontFamily=Helvetica;fontSize=24;fontColor=default;fillColor=default;" parent="78LZ6X8sNbW4thThY6g4-104" vertex="1">
          <mxGeometry x="240" y="56" width="100" height="390" as="geometry" />
        </mxCell>
        <mxCell id="78LZ6X8sNbW4thThY6g4-115" value="" style="html=1;points=[[0,0,0,0,5],[0,1,0,0,-5],[1,0,0,0,5],[1,1,0,0,-5]];perimeter=orthogonalPerimeter;outlineConnect=0;targetShapes=umlLifeline;portConstraint=eastwest;newEdgeStyle={&quot;curved&quot;:0,&quot;rounded&quot;:0};strokeColor=default;align=center;verticalAlign=middle;fontFamily=Helvetica;fontSize=12;fontColor=default;fillColor=default;" parent="78LZ6X8sNbW4thThY6g4-114" vertex="1">
          <mxGeometry x="45" y="108" width="10" height="30" as="geometry" />
        </mxCell>
        <mxCell id="78LZ6X8sNbW4thThY6g4-116" value="用户服务" style="shape=umlLifeline;perimeter=lifelinePerimeter;whiteSpace=wrap;html=1;container=1;dropTarget=0;collapsible=0;recursiveResize=0;outlineConnect=0;portConstraint=eastwest;newEdgeStyle={&quot;curved&quot;:0,&quot;rounded&quot;:0};strokeColor=default;align=center;verticalAlign=middle;fontFamily=Helvetica;fontSize=24;fontColor=default;fillColor=default;" parent="78LZ6X8sNbW4thThY6g4-104" vertex="1">
          <mxGeometry x="360" y="56" width="100" height="390" as="geometry" />
        </mxCell>
        <mxCell id="78LZ6X8sNbW4thThY6g4-117" value="" style="html=1;points=[[0,0,0,0,5],[0,1,0,0,-5],[1,0,0,0,5],[1,1,0,0,-5]];perimeter=orthogonalPerimeter;outlineConnect=0;targetShapes=umlLifeline;portConstraint=eastwest;newEdgeStyle={&quot;curved&quot;:0,&quot;rounded&quot;:0};strokeColor=default;align=center;verticalAlign=middle;fontFamily=Helvetica;fontSize=12;fontColor=default;fillColor=default;" parent="78LZ6X8sNbW4thThY6g4-116" vertex="1">
          <mxGeometry x="45" y="137" width="10" height="103" as="geometry" />
        </mxCell>
        <mxCell id="78LZ6X8sNbW4thThY6g4-118" value="合法检测" style="shape=umlLifeline;perimeter=lifelinePerimeter;whiteSpace=wrap;html=1;container=1;dropTarget=0;collapsible=0;recursiveResize=0;outlineConnect=0;portConstraint=eastwest;newEdgeStyle={&quot;curved&quot;:0,&quot;rounded&quot;:0};strokeColor=default;align=center;verticalAlign=middle;fontFamily=Helvetica;fontSize=24;fontColor=default;fillColor=default;" parent="78LZ6X8sNbW4thThY6g4-104" vertex="1">
          <mxGeometry x="480" y="56" width="100" height="390" as="geometry" />
        </mxCell>
        <mxCell id="78LZ6X8sNbW4thThY6g4-119" value="" style="html=1;points=[[0,0,0,0,5],[0,1,0,0,-5],[1,0,0,0,5],[1,1,0,0,-5]];perimeter=orthogonalPerimeter;outlineConnect=0;targetShapes=umlLifeline;portConstraint=eastwest;newEdgeStyle={&quot;curved&quot;:0,&quot;rounded&quot;:0};strokeColor=default;align=center;verticalAlign=middle;fontFamily=Helvetica;fontSize=12;fontColor=default;fillColor=default;" parent="78LZ6X8sNbW4thThY6g4-118" vertex="1">
          <mxGeometry x="45" y="151" width="10" height="19" as="geometry" />
        </mxCell>
        <mxCell id="78LZ6X8sNbW4thThY6g4-120" value="数据库" style="shape=umlLifeline;perimeter=lifelinePerimeter;whiteSpace=wrap;html=1;container=1;dropTarget=0;collapsible=0;recursiveResize=0;outlineConnect=0;portConstraint=eastwest;newEdgeStyle={&quot;curved&quot;:0,&quot;rounded&quot;:0};strokeColor=default;align=center;verticalAlign=middle;fontFamily=Helvetica;fontSize=24;fontColor=default;fillColor=default;" parent="78LZ6X8sNbW4thThY6g4-104" vertex="1">
          <mxGeometry x="600" y="56" width="100" height="400" as="geometry" />
        </mxCell>
        <mxCell id="78LZ6X8sNbW4thThY6g4-121" value="" style="html=1;points=[[0,0,0,0,5],[0,1,0,0,-5],[1,0,0,0,5],[1,1,0,0,-5]];perimeter=orthogonalPerimeter;outlineConnect=0;targetShapes=umlLifeline;portConstraint=eastwest;newEdgeStyle={&quot;curved&quot;:0,&quot;rounded&quot;:0};strokeColor=default;align=center;verticalAlign=middle;fontFamily=Helvetica;fontSize=12;fontColor=default;fillColor=default;" parent="78LZ6X8sNbW4thThY6g4-120" vertex="1">
          <mxGeometry x="45" y="187" width="10" height="23" as="geometry" />
        </mxCell>
        <mxCell id="78LZ6X8sNbW4thThY6g4-122" value="订阅" style="html=1;verticalAlign=bottom;startArrow=oval;startFill=1;endArrow=block;startSize=8;curved=0;rounded=0;fontFamily=Helvetica;fontSize=12;fontColor=default;" parent="78LZ6X8sNbW4thThY6g4-104" target="78LZ6X8sNbW4thThY6g4-114" edge="1">
          <mxGeometry width="60" relative="1" as="geometry">
            <mxPoint x="409.50000000000045" y="140" as="sourcePoint" />
            <mxPoint x="295" y="140" as="targetPoint" />
          </mxGeometry>
        </mxCell>
        <mxCell id="78LZ6X8sNbW4thThY6g4-123" value="分发" style="html=1;verticalAlign=bottom;endArrow=open;dashed=1;endSize=8;curved=0;rounded=0;fontFamily=Helvetica;fontSize=12;fontColor=default;" parent="78LZ6X8sNbW4thThY6g4-104" edge="1">
          <mxGeometry relative="1" as="geometry">
            <mxPoint x="289.07142857142844" y="194" as="sourcePoint" />
            <mxPoint x="405" y="194" as="targetPoint" />
          </mxGeometry>
        </mxCell>
        <mxCell id="78LZ6X8sNbW4thThY6g4-124" value="检测" style="html=1;verticalAlign=bottom;startArrow=oval;startFill=1;endArrow=block;startSize=8;curved=0;rounded=0;fontFamily=Helvetica;fontSize=12;fontColor=default;" parent="78LZ6X8sNbW4thThY6g4-104" edge="1">
          <mxGeometry width="60" relative="1" as="geometry">
            <mxPoint x="409.81034482758605" y="208" as="sourcePoint" />
            <mxPoint x="525" y="208" as="targetPoint" />
          </mxGeometry>
        </mxCell>
        <mxCell id="78LZ6X8sNbW4thThY6g4-125" value="查询" style="html=1;verticalAlign=bottom;startArrow=oval;startFill=1;endArrow=block;startSize=8;curved=0;rounded=0;fontFamily=Helvetica;fontSize=12;fontColor=default;" parent="78LZ6X8sNbW4thThY6g4-104" edge="1">
          <mxGeometry width="60" relative="1" as="geometry">
            <mxPoint x="409.66666666666697" y="245" as="sourcePoint" />
            <mxPoint x="645" y="245" as="targetPoint" />
          </mxGeometry>
        </mxCell>
        <mxCell id="78LZ6X8sNbW4thThY6g4-126" value="return" style="html=1;verticalAlign=bottom;endArrow=open;dashed=1;endSize=8;curved=0;rounded=0;fontFamily=Helvetica;fontSize=12;fontColor=default;" parent="78LZ6X8sNbW4thThY6g4-104" edge="1">
          <mxGeometry relative="1" as="geometry">
            <mxPoint x="529.5000000000005" y="225" as="sourcePoint" />
            <mxPoint x="415" y="225" as="targetPoint" />
          </mxGeometry>
        </mxCell>
        <mxCell id="78LZ6X8sNbW4thThY6g4-127" value="返回用户数据" style="html=1;verticalAlign=bottom;endArrow=open;dashed=1;endSize=8;curved=0;rounded=0;fontFamily=Helvetica;fontSize=12;fontColor=default;" parent="78LZ6X8sNbW4thThY6g4-104" edge="1">
          <mxGeometry relative="1" as="geometry">
            <mxPoint x="649.5" y="265" as="sourcePoint" />
            <mxPoint x="415" y="265" as="targetPoint" />
          </mxGeometry>
        </mxCell>
        <mxCell id="78LZ6X8sNbW4thThY6g4-129" value="响应消息" style="html=1;verticalAlign=bottom;startArrow=oval;startFill=1;endArrow=block;startSize=8;curved=0;rounded=0;fontFamily=Helvetica;fontSize=12;fontColor=default;movable=1;resizable=1;rotatable=1;deletable=1;editable=1;locked=0;connectable=1;" parent="78LZ6X8sNbW4thThY6g4-104" target="78LZ6X8sNbW4thThY6g4-110" edge="1">
          <mxGeometry width="60" relative="1" as="geometry">
            <mxPoint x="409.5" y="283" as="sourcePoint" />
            <mxPoint x="75" y="283" as="targetPoint" />
          </mxGeometry>
        </mxCell>
        <mxCell id="78LZ6X8sNbW4thThY6g4-222" value="(若登录成功)User数据" style="edgeLabel;html=1;align=center;verticalAlign=middle;resizable=1;points=[];movable=1;rotatable=1;deletable=1;editable=1;locked=0;connectable=1;" parent="78LZ6X8sNbW4thThY6g4-129" vertex="1" connectable="0">
          <mxGeometry x="-0.1745" y="2" relative="1" as="geometry">
            <mxPoint x="-28" y="10" as="offset" />
          </mxGeometry>
        </mxCell>
        <mxCell id="78LZ6X8sNbW4thThY6g4-224" value="会话" style="shape=umlLifeline;perimeter=lifelinePerimeter;whiteSpace=wrap;html=1;container=1;dropTarget=0;collapsible=0;recursiveResize=0;outlineConnect=0;portConstraint=eastwest;newEdgeStyle={&quot;curved&quot;:0,&quot;rounded&quot;:0};strokeColor=default;align=center;verticalAlign=middle;fontFamily=Helvetica;fontSize=24;fontColor=default;fillColor=default;" parent="78LZ6X8sNbW4thThY6g4-104" vertex="1">
          <mxGeometry x="10" y="56" width="100" height="390" as="geometry" />
        </mxCell>
        <mxCell id="78LZ6X8sNbW4thThY6g4-226" value="记录数据" style="html=1;verticalAlign=bottom;startArrow=oval;endArrow=block;startSize=8;curved=0;rounded=0;fontFamily=Helvetica;fontSize=12;fontColor=default;" parent="78LZ6X8sNbW4thThY6g4-104" edge="1">
          <mxGeometry relative="1" as="geometry">
            <mxPoint x="179.50000000000045" y="314" as="sourcePoint" />
            <mxPoint x="59.630434782608745" y="314" as="targetPoint" />
          </mxGeometry>
        </mxCell>
        <mxCell id="78LZ6X8sNbW4thThY6g4-131" value="字节流" style="html=1;verticalAlign=bottom;startArrow=oval;endArrow=block;startSize=8;curved=0;rounded=0;fontFamily=Helvetica;fontSize=12;fontColor=default;" parent="78LZ6X8sNbW4thThY6g4-86" edge="1">
          <mxGeometry relative="1" as="geometry">
            <mxPoint x="639.547619047619" y="186.5" as="sourcePoint" />
            <mxPoint x="915" y="186.5" as="targetPoint" />
          </mxGeometry>
        </mxCell>
        <mxCell id="78LZ6X8sNbW4thThY6g4-132" value="字节流" style="html=1;verticalAlign=bottom;startArrow=oval;endArrow=block;startSize=8;curved=0;rounded=0;fontFamily=Helvetica;fontSize=12;fontColor=default;" parent="78LZ6X8sNbW4thThY6g4-86" edge="1">
          <mxGeometry relative="1" as="geometry">
            <mxPoint x="919.5" y="360.5" as="sourcePoint" />
            <mxPoint x="645" y="360.5" as="targetPoint" />
          </mxGeometry>
        </mxCell>
      </root>
    </mxGraphModel>
  </diagram>
</mxfile>
